HIERARCHY
ROOT Hips
{
 OFFSET 0.000000 0.000000 0.000000
 CHANNELS 6 Xposition Yposition Zposition Yrotation Xrotation Zrotation
 JOINT Chest
 {
  OFFSET 0.000000 13.173100 -0.061900
  CHANNELS 3 Yrotation Xrotation Zrotation
  JOINT Chest2
  {
   OFFSET 0.000000 8.040800 0.126200
   CHANNELS 3 Yrotation Xrotation Zrotation
   JOINT Chest3
   {
    OFFSET 0.000000 7.994400 0.000000
    CHANNELS 3 Yrotation Xrotation Zrotation
    JOINT Chest4
    {
     OFFSET 0.000000 7.986200 0.000000
     CHANNELS 3 Yrotation Xrotation Zrotation
     JOINT Neck
     {
      OFFSET 0.000000 12.259400 0.000000
      CHANNELS 3 Yrotation Xrotation Zrotation
      JOINT Head
      {
       OFFSET 0.000000 7.518700 0.267100
       CHANNELS 3 Yrotation Xrotation Zrotation
       End Site
       {
        OFFSET 0.000000 13.617700 0.141000
       }
      }
     }
     JOINT RightCollar
     {
      OFFSET -2.983800 8.314300 0.000000
      CHANNELS 3 Yrotation Xrotation Zrotation
      JOINT RightShoulder
      {
       OFFSET -16.133400 0.000000 0.000000
       CHANNELS 3 Yrotation Xrotation Zrotation
       JOINT RightElbow
       {
        OFFSET 0.000000 -29.822100 0.000000
        CHANNELS 3 Yrotation Xrotation Zrotation
        JOINT RightWrist
        {
         OFFSET 0.000000 -24.437700 0.010900
         CHANNELS 3 Yrotation Xrotation Zrotation
         End Site
         {
          OFFSET 0.000000 -18.312300 0.000000
         }
        }
       }
      }
     }
     JOINT LeftCollar
     {
      OFFSET 2.983800 8.314300 0.000000
      CHANNELS 3 Yrotation Xrotation Zrotation
      JOINT LeftShoulder
      {
       OFFSET 16.133400 0.000000 0.000000
       CHANNELS 3 Yrotation Xrotation Zrotation
       JOINT LeftElbow
       {
        OFFSET 0.000000 -29.822100 0.000000
        CHANNELS 3 Yrotation Xrotation Zrotation
        JOINT LeftWrist
        {
         OFFSET 0.000000 -24.437700 0.010900
         CHANNELS 3 Yrotation Xrotation Zrotation
         End Site
         {
          OFFSET 0.000000 -18.312300 0.000000
         }
        }
       }
      }
     }
    }
   }
  }
 }
 JOINT RightHip
 {
  OFFSET -11.206700 0.306200 0.030900
  CHANNELS 3 Yrotation Xrotation Zrotation
  JOINT RightKnee
  {
   OFFSET 0.000000 -57.334900 0.009400
   CHANNELS 3 Yrotation Xrotation Zrotation
   JOINT RightAnkle
   {
    OFFSET 0.000000 -43.376200 0.036600
    CHANNELS 3 Yrotation Xrotation Zrotation
    JOINT RightToe
    {
     OFFSET 0.000000 -10.035500 18.363100
     CHANNELS 3 Yrotation Xrotation Zrotation
     End Site
     {
      OFFSET 0.000000 -1.618500 7.239000
     }
    }
   }
  }
 }
 JOINT LeftHip
 {
  OFFSET 11.206700 0.306200 0.030900
  CHANNELS 3 Yrotation Xrotation Zrotation
  JOINT LeftKnee
  {
   OFFSET 0.000000 -57.334900 0.009400
   CHANNELS 3 Yrotation Xrotation Zrotation
   JOINT LeftAnkle
   {
    OFFSET 0.000000 -43.376200 0.036600
    CHANNELS 3 Yrotation Xrotation Zrotation
    JOINT LeftToe
    {
     OFFSET 0.000000 -10.035500 18.363100
     CHANNELS 3 Yrotation Xrotation Zrotation
     End Site
     {
      OFFSET 0.000000 -1.618500 7.239000
     }
    }
   }
  }
 }
}
MOTION
Frames: 8
Frame Time: 0.008333
0.000000 110.232800 0.000000 0.000000 -5.767877 0.000000 0.000000 11.653817 0.000000 0.000000 -5.885947 0.000000 0.000000 -0.000000 0.000000 0.000000 -0.000000 0.000000 0.000000 12.528835 0.000000 0.000000 0.711642 0.000000 0.000000 -0.000000 0.000000 0.000000 0.000000 -90.000000 0.000000 -2.309062 0.000000 0.000000 2.309062 0.000000 0.000000 -0.000000 0.000000 0.000000 -0.000000 90.000000 0.000000 -2.309062 0.000000 0.000000 2.309062 0.000000 0.000000 8.520406 0.000000 0.000000 1.905762 0.000000 -0.000000 -4.658285 0.000000 0.000000 -0.000000 0.000000 0.000000 8.520406 0.000000 0.000000 1.905762 0.000000 -0.000000 -4.658285 0.000000 0.000000 -0.000000 0.000000
-118.612379 66.167661 98.163102 -170.839639 -39.089269 -9.754610 -3.842499 13.203881 0.812993 -2.304583 7.422643 0.865370 -2.871914 9.261338 1.029649 -2.306782 7.405186 0.859718 2.155910 21.927566 -0.231454 2.365694 -2.291261 -0.740859 6.213140 -1.944278 -1.941764 2.138498 -18.820542 1.955809 63.689083 -30.998334 -39.413724 11.207482 8.432373 -20.538011 -10.925618 -2.305479 -5.401138 -8.199089 -19.475791 2.534060 -49.231499 -20.083542 38.950792 -0.480251 -7.014747 4.192275 -17.787222 -25.591835 2.335716 0.930163 74.611044 0.003936 2.970322 -9.187958 0.730550 0.024679 -0.106522 0.330697 -8.716597 -40.335531 0.586897 174.211314 68.978597 173.134205 -0.454993 -28.232716 1.013723 0.083783 0.744545 0.059242
-118.613956 66.008182 98.172180 -170.839406 -39.053717 -9.745520 -3.846706 13.186096 0.813223 -2.292076 7.482156 0.893938 -2.865378 9.271405 1.043923 -2.301712 7.413129 0.871088 2.143975 21.916102 -0.243028 2.355382 -2.304916 -0.750498 6.193745 -1.980967 -1.966122 2.096315 -18.753215 1.946069 63.731067 -31.100337 -39.474165 11.209438 8.418574 -20.573878 -10.934426 -2.300236 -5.401224 -8.211115 -19.429723 2.542353 -49.408119 -20.148631 39.110832 -0.401087 -7.004438 4.245041 -17.766604 -25.606176 2.346893 0.808120 74.589921 -0.082556 2.968164 -9.234799 0.688759 0.027122 -0.060689 0.295296 -8.727263 -40.394081 0.595388 174.248644 68.961447 173.155907 -0.460455 -28.251118 1.024286 0.083827 0.766597 0.059092
-118.614841 65.826478 98.190131 -170.875943 -38.971289 -9.708277 -3.827733 13.168148 0.831152 -2.288594 7.468983 0.897170 -2.854221 9.300517 1.064571 -2.297085 7.421292 0.881577 2.131684 21.904538 -0.254619 2.339387 -2.336093 -0.764374 6.185200 -1.970779 -1.974248 2.052636 -18.731723 1.916951 63.734751 -31.233513 -39.466429 11.253998 8.419331 -20.662969 -10.956188 -2.357341 -5.414363 -8.214741 -19.309502 2.562018 -49.514499 -20.259964 39.254304 -0.366376 -6.989655 4.269658 -17.751395 -25.693862 2.373920 0.915722 74.581540 0.048101 2.925393 -9.238591 0.656251 0.014856 -0.052505 0.244040 -8.723754 -40.507255 0.614249 174.298731 68.947997 173.184544 -0.470783 -28.263190 1.039819 0.087339 0.788856 0.060056
-118.614364 65.645712 98.201223 -170.882882 -38.920616 -9.697550 -3.808682 13.245203 0.888554 -2.311255 7.356870 0.855377 -2.831756 9.367052 1.099684 -2.292853 7.429760 0.891355 2.118664 21.893215 -0.265870 2.327870 -2.349645 -0.773388 6.176481 -1.957054 -1.982577 2.014691 -18.715194 1.888930 63.803764 -31.307967 -39.538495 11.229403 8.406232 -20.718181 -10.980176 -2.412377 -5.427060 -8.222698 -19.183775 2.586550 -49.612869 -20.389105 39.401219 -0.339071 -6.966424 4.291194 -17.752904 -25.738707 2.400085 1.167513 74.568230 0.323124 2.848113 -9.241232 0.587303 0.011716 -0.047430 0.225331 -8.732678 -40.583345 0.648185 174.374397 68.936636 173.230989 -0.497907 -28.249426 1.075509 0.095105 0.785258 0.062085
-118.616492 65.470186 98.210152 -170.886795 -38.877105 -9.674896 -3.802337 13.262921 0.903752 -2.311159 7.366635 0.863377 -2.837691 9.334333 1.091269 -2.270282 7.482916 0.917238 2.104799 21.882652 -0.276130 2.320494 -2.344926 -0.776831 6.163435 -1.962093 -1.998219 1.984168 -18.684056 1.874007 63.876792 -31.374214 -39.619645 11.201346 8.394941 -20.787649 -11.001271 -2.414945 -5.425149 -8.231309 -19.110287 2.606766 -49.709295 -20.532213 39.542720 -0.333087 -6.954846 4.332641 -17.748939 -25.792293 2.415406 1.355923 74.566807 0.523880 2.793400 -9.222841 0.526463 0.011989 -0.058470 0.211510 -8.720669 -40.639516 0.656925 174.404524 68.940979 173.230683 -0.527636 -28.239958 1.121233 0.090016 0.788496 0.058573
-118.610731 65.306358 98.217455 -170.888384 -38.832568 -9.684543 -3.788614 13.283364 0.950763 -2.288922 7.429384 0.900577 -2.868439 9.245018 1.060064 -2.247028 7.539504 0.939816 2.091989 21.873398 -0.284095 2.308424 -2.356013 -0.782392 6.150299 -1.969651 -2.011937 1.962961 -18.655859 1.863945 63.947642 -31.437422 -39.706738 11.169685 8.383190 -20.874319 -11.010152 -2.338374 -5.409271 -8.242629 -19.119319 2.627859 -49.809149 -20.689705 39.675568 -0.319142 -6.952671 4.395946 -17.781423 -25.847464 2.491952 1.489725 74.567490 0.640664 2.757686 -9.156061 0.415476 0.002650 -0.102557 0.255244 -8.735080 -40.688449 0.695329 174.445258 68.944170 173.267141 -0.539409 -28.222233 1.131235 0.094041 0.778845 0.064014
-118.605922 65.155482 98.224548 -170.887829 -38.779973 -9.686770 -3.777579 13.297644 0.988519 -2.277681 7.457353 0.917763 -2.843086 9.304122 1.093273 -2.268566 7.480615 0.924874 2.080616 21.867190 -0.289434 2.297287 -2.363586 -0.785459 6.134061 -1.978712 -2.021889 1.954592 -18.631173 1.854919 64.012962 -31.478790 -39.816992 11.115807 8.348981 -20.958129 -11.026655 -2.310485 -5.400907 -8.223016 -19.083829 2.652268 -49.914552 -20.864286 39.799188 -0.299087 -6.925768 4.410238 -17.827271 -25.917835 2.559700 1.681330 74.574507 0.815598 2.704969 -9.087219 0.309753 0.002363 -0.143136 0.283052 -8.752397 -40.740185 0.732028 174.519363 68.960726 173.321099 -0.540352 -28.189040 1.153680 0.090906 0.759707 0.064578
